<?xml version="1.0" encoding="utf-8"?>
<svg width="16px" height="16px" viewBox="0 0 16 16" version="1.1" xmlns:xlink="http://www.w3.org/1999/xlink" xmlns="http://www.w3.org/2000/svg">
  <g id="svg">
    <path d="M0 4L4 4L4 0L0 0L0 4L0 4ZM6 16L10 16L10 12L6 12L6 16L6 16ZM0 16L4 16L4 12L0 12L0 16L0 16ZM0 10L4 10L4 6L0 6L0 10L0 10ZM6 10L10 10L10 6L6 6L6 10L6 10ZM12 0L12 4L16 4L16 0L12 0L12 0ZM6 4L10 4L10 0L6 0L6 4L6 4ZM12 10L16 10L16 6L12 6L12 10L12 10ZM12 16L16 16L16 12L12 12L12 16L12 16Z" id="Фигура" fill="#A1A1AA" fill-rule="evenodd" stroke="none" />
  </g>
</svg>